# xmcd
#
# Track frame offsets:
#	150
#	37155
#	82915
#	118824
#	144924
#	191574
#	228220
#
# Disc length: 3325 seconds
#
# Revision: 0
# Processed by: cddbd v1.5.2PL0 Copyright (c) Steve Scherf et al.
# Submitted via: audiograbber 1.83.01
#
DISCID=550cfb07
DTITLE=Grateful Dead - 93-01-26 Oakland Coliseum Arena, Oakland CA
DYEAR=1900
DGENRE=
TTITLE0=Picasso Moon
TTITLE1=Row Jimmy
TTITLE2=Wang Dang Doodle
TTITLE3=Brown Eyed Women
TTITLE4=Desolation Row
TTITLE5=Ramble On Rose
TTITLE6=Promised Land
EXTD=
EXTT0=
EXTT1=
EXTT2=
EXTT3=
EXTT4=
EXTT5=
EXTT6=
PLAYORDER=
